<?xml version="1.0" standalone="no"?>
<!DOCTYPE svg PUBLIC "-//W3C//DTD SVG 20010904//EN"
 "http://www.w3.org/TR/2001/REC-SVG-20010904/DTD/svg10.dtd">
<svg version="1.0" xmlns="http://www.w3.org/2000/svg"
 width="300.000000pt" height="286.000000pt" viewBox="0 0 300.000000 286.000000"
 preserveAspectRatio="xMidYMid meet">
<metadata>
Created by potrace 1.10, written by Peter Selinger 2001-2011
</metadata>
<g transform="translate(0.000000,286.000000) scale(0.100000,-0.100000)"
fill="#000000" stroke="none">
<path d="M1059 2571 c-39 -38 -48 -71 -30 -100 5 -7 75 -80 155 -161 80 -80
146 -151 146 -156 0 -5 -175 -9 -433 -9 -389 0 -436 -2 -470 -17 -65 -30 -113
-75 -143 -135 l-29 -58 0 -780 0 -780 23 -45 c30 -58 66 -95 122 -128 l45 -27
1150 0 1150 0 53 29 c30 17 66 46 82 65 58 74 59 85 65 628 4 274 2 624 -2
778 -9 257 -11 283 -31 321 -26 50 -104 120 -152 136 -28 9 -538 20 -872 18
-10 0 -18 6 -18 13 0 6 64 75 141 152 156 154 173 175 165 202 -11 34 -77 93
-104 93 -20 0 -74 -48 -244 -217 -120 -120 -223 -220 -229 -221 -5 -2 -105 92
-223 208 -117 117 -219 216 -227 221 -27 17 -52 9 -90 -30z m304 -218 l236
-238 236 238 c130 130 238 237 239 237 2 0 22 -19 46 -41 l43 -41 -196 -196
c-108 -107 -197 -197 -197 -199 0 -1 213 -3 473 -3 302 0 486 -4 510 -11 49
-13 110 -68 136 -123 21 -42 21 -55 21 -822 -1 -715 -2 -782 -18 -810 -28 -52
-68 -92 -114 -116 l-43 -23 -1125 -3 c-1252 -3 -1171 -7 -1251 65 -77 70 -74
34 -74 893 0 599 3 773 13 801 17 47 74 106 126 130 38 17 75 19 523 19 l483
0 -201 197 -200 197 43 43 c23 24 45 43 48 43 3 0 112 -107 243 -237z"/>
<path d="M524 1871 c-2 -2 -4 -325 -4 -718 l0 -713 1075 0 1075 0 0 718 0 717
-1071 0 c-589 0 -1073 -2 -1075 -4z m2104 -43 c9 -9 12 -173 12 -675 0 -625
-1 -663 -18 -672 -29 -15 -2024 -14 -2045 1 -15 12 -17 67 -17 676 -1 364 2
667 5 672 10 16 2047 14 2063 -2z"/>
<path d="M1219 1629 c-8 -15 -11 -155 -11 -471 0 -396 2 -452 16 -473 9 -14
22 -25 30 -25 16 0 129 59 202 106 29 19 56 34 59 34 4 0 59 31 123 69 64 37
135 78 157 90 22 12 47 26 55 31 8 5 56 33 105 61 97 56 135 85 135 105 0 16
-43 57 -79 76 -14 7 -28 15 -31 18 -3 3 -21 14 -40 24 -19 10 -175 99 -347
197 -177 101 -323 179 -337 179 -16 0 -30 -8 -37 -21z m104 -38 c188 -112 634
-366 709 -403 53 -26 58 -35 26 -47 -13 -5 -144 -78 -293 -163 -148 -85 -290
-166 -315 -180 -25 -14 -80 -46 -123 -72 -43 -25 -82 -46 -85 -46 -4 0 -7 216
-7 480 0 264 1 480 3 480 2 0 40 -22 85 -49z"/>
</g>
</svg>
